Coordinates
version=1
nRows=34
nColumns=38
inDegrees=no

Units are S.I. units (second, meters, Newtons, ...)
If the header above contains a line with 'inDegrees', this indicates whether rotational values are in degrees (yes) or radians (no).

endheader
time	pelvis_tilt	pelvis_list	pelvis_rotation	pelvis_tx	pelvis_ty	pelvis_tz	hip_flexion_r	hip_adduction_r	hip_rotation_r	knee_angle_r	ankle_angle_r	subtalar_angle_r	mtp_angle_r	hip_flexion_l	hip_adduction_l	hip_rotation_l	knee_angle_l	ankle_angle_l	subtalar_angle_l	mtp_angle_l	lumbar_extension	lumbar_bending	lumbar_rotation	arm_flex_r	arm_add_r	arm_rot_r	elbow_flex_r	pro_sup_r	wrist_flex_r	wrist_dev_r	arm_flex_l	arm_add_l	arm_rot_l	elbow_flex_l	pro_sup_l	wrist_flex_l	wrist_dev_l
2.05	1.31577	1.5131	-2.58971	0.787117	1.00217	0.918077	-0.227138	-0.0233983	-0.364083	0.340576	0.214654	0	0	0.264968	0.0960988	-0.202359	0.463314	0.176154	0	0	-0.356234	-0.074953	0.330048	0.689148	-0.0162529	0.219248	0.973957	0.221498	0	0	-0.0514957	-0.308802	0.514364	0.671115	1.41067	0	0
2.06	1.22107	1.5169	-2.49407	0.789754	0.996592	0.91809	-0.218846	-0.0275232	-0.368093	0.377697	0.209866	0	0	0.266319	0.075607	-0.246707	0.492603	0.19517	0	0	-0.356702	-0.0668134	0.324705	0.695038	-0.0312443	0.446488	0.940009	1.5708	0	0	-0.0556001	-0.310605	0.517972	0.677551	1.38111	0	0
2.07	1.18772	1.51683	-2.45857	0.792302	0.991199	0.918757	-0.207977	-0.0377547	-0.372494	0.417881	0.20205	0	0	0.25424	0.0751617	-0.248953	0.487687	0.201089	0	0	-0.357366	-0.065763	0.318132	0.693731	-0.0284543	0.444713	0.937352	1.5708	0	0	-0.0572437	-0.309999	0.508477	0.678063	1.39555	0	0
2.08	1.15229	1.51633	-2.42049	0.794944	0.9859	0.919526	-0.195265	-0.0494026	-0.376034	0.461617	0.189954	0	0	0.240945	0.0750937	-0.251191	0.48124	0.207198	0	0	-0.358278	-0.0646959	0.311365	0.6929	-0.0260851	0.443473	0.934079	1.5708	0	0	-0.0582209	-0.311614	0.510423	0.68137	1.3904	0	0
2.09	1.12209	1.51505	-2.38754	0.797652	0.980708	0.920332	-0.18048	-0.0628423	-0.377774	0.50869	0.173384	0	0	0.226617	0.0760673	-0.253123	0.473103	0.212577	0	0	-0.359463	-0.0641803	0.304576	0.692924	-0.024333	0.442568	0.930095	1.5708	0	0	-0.0584015	-0.315451	0.521557	0.687535	1.35871	0	0
2.1	1.11	1.51432	-2.37267	0.800377	0.975603	0.920977	-0.162201	-0.0771639	-0.377022	0.558328	0.153369	0	0	0.213744	0.0769166	-0.256737	0.465357	0.217648	0	0	-0.35943	-0.0636965	0.297495	0.693652	-0.0224013	0.441747	0.925274	1.5708	0	0	-0.0597148	-0.315101	0.514679	0.688917	1.3734	0	0
2.11	1.1437	1.51477	-2.40328	0.803008	0.970372	0.921398	-0.139785	-0.0923667	-0.374395	0.608261	0.129414	0	0	0.203266	0.07888	-0.259572	0.456336	0.221056	0	0	-0.355432	-0.0660435	0.292087	0.686464	-0.00478346	0.212518	0.953519	0.219371	0	0	-0.0594136	-0.320891	0.527591	0.696805	1.33887	0	0
2.12	1.13324	1.50705	-2.39104	0.805338	0.965797	0.922632	-0.122954	-0.112624	-0.369778	0.658372	0.102054	0	0	0.172515	0.0984615	-0.223497	0.415221	0.211401	0	0	-0.36255	-0.0706028	0.283329	0.697729	-0.0183525	0.439191	0.913503	1.5708	0	0	-0.0586423	-0.323284	0.527431	0.702648	1.32857	0	0
2.13	1.1832	1.50937	-2.43828	0.808037	0.960825	0.92186	-0.0913644	-0.133863	-0.376437	0.720702	0.077139	0	0	0.17746	0.0881444	-0.260747	0.436661	0.227672	0	0	-0.35587	-0.0702103	0.276985	0.698703	-0.0165678	0.438498	0.907762	1.5708	0	0	-0.0616819	-0.326716	0.527124	0.710885	1.32605	0	0
2.14	1.27018	1.50727	-2.5227	0.810269	0.955863	0.921259	-0.0615976	-0.168311	-0.401777	0.78468	0.0480815	0	0	0.171832	0.0929118	-0.265733	0.434013	0.234088	0	0	-0.350727	-0.0761099	0.269624	0.700328	-0.0128084	0.434014	0.899977	1.5708	0	0	-0.0638885	-0.337454	0.540991	0.728897	1.28162	0	0
2.15	1.24926	1.50434	-2.49934	0.81264	0.95116	0.921713	-0.0418557	-0.18281	-0.394403	0.82862	0.0178188	0	0	0.157595	0.096014	-0.265014	0.425112	0.236631	0	0	-0.353014	-0.0774891	0.263447	0.704105	-0.0110375	0.431378	0.891624	1.5708	0	0	-0.0642036	-0.341029	0.540266	0.737168	1.27557	0	0
2.16	1.22371	1.50109	-2.47133	0.814936	0.946556	0.922245	-0.0227923	-0.195899	-0.386335	0.869868	-0.00672265	0	0	0.142322	0.100253	-0.259903	0.414587	0.238926	0	0	-0.356183	-0.078705	0.257937	0.708401	-0.0100696	0.430783	0.883798	1.5708	0	0	-0.0631777	-0.344224	0.542022	0.743792	1.27501	0	0
2.17	1.18217	1.4974	-2.42691	0.817219	0.942033	0.922914	-0.00589712	-0.206879	-0.377959	0.906871	-0.0234813	0	0	0.126074	0.103309	-0.256188	0.405036	0.241589	0	0	-0.360929	-0.0791234	0.252172	0.712792	-0.00841283	0.426686	0.875644	1.5708	0	0	-0.0617703	-0.347792	0.545505	0.750892	1.27518	0	0
2.18	1.1314	1.49382	-2.37277	0.819458	0.937613	0.923722	0.00955154	-0.215461	-0.36917	0.939801	-0.03157	0	0	0.109343	0.105245	-0.252222	0.395657	0.243956	0	0	-0.366669	-0.0785557	0.246402	0.717197	-0.00661591	0.421033	0.867676	1.5708	0	0	-0.0598462	-0.351019	0.548203	0.757218	1.27342	0	0
2.19	1.07264	1.49116	-2.31075	0.821654	0.933259	0.924596	0.0250556	-0.221314	-0.359157	0.970904	-0.0312724	0	0	0.093135	0.105082	-0.249061	0.387267	0.246864	0	0	-0.37243	-0.0764869	0.241686	0.721493	-0.0054464	0.416316	0.860171	1.5708	0	0	-0.0573928	-0.353386	0.550384	0.762117	1.2698	0	0
2.2	0.92918	1.48678	-2.16614	0.823654	0.929478	0.926964	0.0343455	-0.198321	-0.308296	0.987046	-0.0238848	0	0	0.0626652	0.106209	-0.224857	0.357553	0.238792	0	0	-0.386488	-0.0688779	0.240528	0.728631	-0.00632834	0.413624	0.852057	1.5708	0	0	-0.0510277	-0.34925	0.546846	0.757767	1.28228	0	0
2.21	0.940435	1.48554	-2.17308	0.82594	0.924811	0.926592	0.0567531	-0.22942	-0.337437	1.03393	-0.00725544	0	0	0.0590987	0.103052	-0.24186	0.367567	0.249826	0	0	-0.385493	-0.0693519	0.233662	0.732024	-0.00444773	0.411149	0.844058	1.5708	0	0	-0.0524113	-0.353198	0.543497	0.764765	1.28146	0	0
2.22	0.877358	1.48432	-2.10667	0.828051	0.920738	0.927418	0.0742038	-0.231716	-0.328975	1.06193	0.00959465	0	0	0.0465433	0.0992888	-0.241313	0.363237	0.253259	0	0	-0.390409	-0.0639181	0.229091	0.737571	-0.00430297	0.410074	0.835552	1.5708	0	0	-0.0513592	-0.353057	0.537972	0.767586	1.27122	0	0
2.23	0.826084	1.48454	-2.05161	0.8302	0.91654	0.928272	0.0928944	-0.233371	-0.321793	1.08537	0.0231593	0	0	0.0352234	0.0960567	-0.237955	0.356411	0.253476	0	0	-0.392594	-0.0598382	0.225416	0.73759	0.0116067	0.167209	0.861709	0.29402	0	0	-0.0496124	-0.352759	0.536041	0.767357	1.29441	0	0
2.24	0.75849	1.48369	-1.98021	0.832325	0.912641	0.929108	0.110668	-0.233622	-0.314887	1.10619	0.0350691	0	0	0.0244496	0.0912197	-0.236202	0.352974	0.2547	0	0	-0.396982	-0.0529176	0.221115	0.744425	0.0105205	0.165958	0.852127	0.297992	0	0	-0.0481032	-0.351823	0.535228	0.767651	1.29762	0	0
2.25	0.690977	1.4832	-1.90856	0.834357	0.908854	0.929908	0.129427	-0.232587	-0.308181	1.12434	0.046781	0	0	0.0152463	0.0857313	-0.233812	0.350368	0.255479	0	0	-0.400809	-0.0455676	0.216724	0.752121	0.00909366	0.165154	0.841106	0.302122	0	0	-0.0467528	-0.350465	0.531741	0.767615	1.2973	0	0
2.26	0.590062	1.48149	-1.80783	0.836907	0.905081	0.930668	0.146055	-0.237074	-0.301632	1.13869	0.0629394	0	0	0.00596398	0.0861679	-0.219848	0.348564	0.248627	0	0	-0.405879	-0.0345613	0.215122	0.760945	0.00706835	0.166185	0.829764	0.304826	0	0	-0.0470663	-0.347463	0.528309	0.767503	1.29608	0	0
2.27	0.507538	1.47899	-1.71949	0.837784	0.901977	0.932627	0.163877	-0.200642	-0.260118	1.14026	0.0694072	0	0	-0.0119179	0.0759555	-0.208244	0.32789	0.244701	0	0	-0.41416	-0.0271271	0.212738	0.771171	0.00309319	0.167931	0.818957	0.306769	0	0	-0.0401814	-0.345316	0.527139	0.763778	1.29448	0	0
2.28	0.39705	1.47881	-1.60905	0.84049	0.89845	0.932881	0.18372	-0.205082	-0.256551	1.15011	0.0903411	0	0	-0.00823639	0.0681313	-0.215812	0.34834	0.246202	0	0	-0.41584	-0.0132972	0.21166	0.780091	0.000107712	0.170939	0.808777	0.306692	0	0	-0.0420531	-0.342719	0.525181	0.765541	1.29442	0	0
2.29	0.332362	1.47699	-1.54104	0.842189	0.894667	0.93358	0.202453	-0.201669	-0.252929	1.15664	0.107324	0	0	-0.0140713	0.0611158	-0.215805	0.35017	0.246759	0	0	-0.418892	-0.00527103	0.208244	0.789823	-0.00155535	0.173317	0.795136	0.320702	0	0	-0.0421834	-0.34225	0.522922	0.767441	1.28636	0	0
2.3	0.278508	1.47387	-1.48442	0.84387	0.890834	0.934413	0.219576	-0.198437	-0.249303	1.15987	0.121475	0	0	-0.022516	0.0555045	-0.213238	0.348492	0.245656	0	0	-0.422925	0.00168349	0.20565	0.79837	-0.00381719	0.173623	0.784101	0.324318	0	0	-0.0419182	-0.341836	0.521345	0.768815	1.28447	0	0
2.31	0.230087	1.47011	-1.43352	0.845453	0.887002	0.935299	0.235793	-0.194828	-0.24616	1.16019	0.13212	0	0	-0.0315011	0.0498145	-0.210658	0.346676	0.244776	0	0	-0.427497	0.00829619	0.203197	0.807126	-0.00570589	0.174514	0.772505	0.327708	0	0	-0.0418787	-0.341909	0.520211	0.770622	1.28286	0	0
2.32	0.187905	1.46604	-1.38921	0.846894	0.883252	0.936219	0.251467	-0.191105	-0.243433	1.15793	0.139738	0	0	-0.0408533	0.0442608	-0.208109	0.344432	0.243335	0	0	-0.432369	0.0143688	0.201388	0.815864	-0.00756938	0.173864	0.760838	0.331338	0	0	-0.0417712	-0.342382	0.51948	0.772841	1.28125	0	0
2.33	0.152364	1.46169	-1.35202	0.848217	0.879437	0.937141	0.266623	-0.187507	-0.241184	1.15355	0.145021	0	0	-0.0505387	0.0388501	-0.205772	0.341767	0.241579	0	0	-0.43747	0.0198003	0.2001	0.824505	-0.00914637	0.172292	0.749569	0.335323	0	0	-0.0417371	-0.343165	0.518597	0.775192	1.27963	0	0
2.34	0.127692	1.4566	-1.32624	0.849448	0.875607	0.938182	0.280125	-0.184405	-0.239361	1.1465	0.149738	0	0	-0.0622328	0.0344927	-0.201995	0.336614	0.238157	0	0	-0.443402	0.0242718	0.199019	0.833371	-0.0106578	0.170957	0.738299	0.339397	0	0	-0.0416396	-0.343854	0.518195	0.776721	1.2787	0	0
2.35	0.11597	1.4514	-1.31424	0.850306	0.871779	0.939486	0.2925	-0.181474	-0.236706	1.13699	0.154058	0	0	-0.0812816	0.0351404	-0.183972	0.316046	0.229516	0	0	-0.450035	0.0265135	0.198566	0.842148	-0.0126924	0.170464	0.727707	0.343063	0	0	-0.0406032	-0.345005	0.518359	0.777073	1.27811	0	0
2.36	0.0783359	1.44872	-1.27609	0.851642	0.867831	0.93998	0.30829	-0.177502	-0.237347	1.12727	0.161255	0	0	-0.0788628	0.023814	-0.201538	0.33495	0.23559	0	0	-0.452572	0.0327412	0.19843	0.851331	-0.0150452	0.166985	0.715084	0.312282	0	0	-0.0410807	-0.34478	0.518059	0.777169	1.28045	0	0
2.37	0.0547874	1.4454	-1.25234	0.852679	0.864124	0.940816	0.32191	-0.174309	-0.238261	1.11446	0.16728	0	0	-0.0851467	0.0179194	-0.203518	0.336808	0.234978	0	0	-0.456458	0.0369693	0.198612	0.859688	-0.0170869	0.167443	0.704387	0.313035	0	0	-0.0403503	-0.345191	0.519577	0.776481	1.27972	0	0
2.38	0.0365532	1.44194	-1.23408	0.853618	0.86034	0.941705	0.334274	-0.17183	-0.240459	1.09944	0.171821	0	0	-0.0924737	0.0128984	-0.204257	0.336761	0.232453	0	0	-0.460602	0.0407357	0.199158	0.868345	-0.019492	0.169509	0.693026	0.314428	0	0	-0.0392524	-0.345309	0.521205	0.774964	1.27867	0	0
